<svg width="22" height="23" viewBox="0 0 22 23" fill="none" xmlns="http://www.w3.org/2000/svg">
<path d="M20.8881 16.2703V19.3407C20.8892 19.6258 20.8322 19.9079 20.7206 20.1691C20.6091 20.4303 20.4454 20.6647 20.2402 20.8574C20.035 21.0501 19.7927 21.1968 19.5289 21.2881C19.265 21.3794 18.9855 21.4133 18.7081 21.3877C15.631 21.0455 12.6751 19.9693 10.0781 18.2456C7.66194 16.6742 5.61345 14.5777 4.07812 12.1048C2.38809 9.43475 1.33636 6.39482 1.00812 3.23127C0.983127 2.94825 1.01599 2.663 1.10462 2.39369C1.19324 2.12437 1.33569 1.8769 1.52288 1.66702C1.71008 1.45713 1.93792 1.28944 2.19191 1.17462C2.44589 1.0598 2.72046 1.00037 2.99812 1.0001H5.99812C6.48342 0.995211 6.95391 1.1711 7.32188 1.49498C7.68985 1.81886 7.93019 2.26864 7.99812 2.76047C8.12474 3.74308 8.35957 4.70786 8.69812 5.63643C8.83266 6.00276 8.86178 6.40088 8.78202 6.78362C8.70227 7.16637 8.51698 7.51769 8.24812 7.79596L6.97812 9.09577C8.40167 11.6581 10.4746 13.7796 12.9781 15.2366L14.2481 13.9368C14.52 13.6616 14.8633 13.472 15.2372 13.3904C15.6112 13.3087 16.0002 13.3385 16.3581 13.4762C17.2654 13.8227 18.2081 14.0631 19.1681 14.1927C19.6539 14.2628 20.0975 14.5132 20.4146 14.8963C20.7318 15.2794 20.9003 15.7684 20.8881 16.2703Z" stroke="black" stroke-width="2" stroke-linecap="round" stroke-linejoin="round"/>
</svg>
